<?xml version="1.0" encoding="utf-8" standalone="no"?>
<!DOCTYPE svg PUBLIC "-//W3C//DTD SVG 1.1//EN"
  "http://www.w3.org/Graphics/SVG/1.1/DTD/svg11.dtd">
<svg xmlns:xlink="http://www.w3.org/1999/xlink" width="576pt" height="360pt" viewBox="0 0 576 360" xmlns="http://www.w3.org/2000/svg" version="1.1">
 <metadata>
  <rdf:RDF xmlns:dc="http://purl.org/dc/elements/1.1/" xmlns:cc="http://creativecommons.org/ns#" xmlns:rdf="http://www.w3.org/1999/02/22-rdf-syntax-ns#">
   <cc:Work>
    <dc:type rdf:resource="http://purl.org/dc/dcmitype/StillImage"/>
    <dc:format>image/svg+xml</dc:format>
    <dc:creator>
     <cc:Agent>
      <dc:title>Matplotlib v3.11.2, https://matplotlib.org/</dc:title>
     </cc:Agent>
    </dc:creator>
   </cc:Work>
  </rdf:RDF>
 </metadata>
 <defs>
  <style type="text/css">*{stroke-linejoin: round; stroke-linecap: butt}</style>
 </defs>
 <g id="figure_1">
  <g id="patch_1">
   <path d="M 0 360 
L 576 360 
L 576 0 
L 0 0 
z
" style="fill: #fcfcfb"/>
  </g>
  <g id="axes_1">
   <g id="patch_2">
    <path d="M 28.8 324 
L 547.2 324 
L 547.2 100.8 
L 28.8 100.8 
z
" style="fill: #fcfcfb"/>
   </g>
   <g id="line2d_1">
    <path d="M 158.4 324 
L 158.4 100.8 
" clip-path="url(#p621717ee57)" style="fill: none; stroke: #e4e3df; stroke-linecap: square"/>
   </g>
   <g id="line2d_2">
    <path d="M 288 324 
L 288 100.8 
" clip-path="url(#p621717ee57)" style="fill: none; stroke: #e4e3df; stroke-linecap: square"/>
   </g>
   <g id="line2d_3">
    <path d="M 417.6 324 
L 417.6 100.8 
" clip-path="url(#p621717ee57)" style="fill: none; stroke: #e4e3df; stroke-linecap: square"/>
   </g>
   <g id="FillBetweenPolyCollection_1">
    <defs>
     <path id="m6643ab1f1b" d="M 28.8 -36.000004 
L 28.8 -36 
L 30.6 -36 
L 32.4 -36 
L 34.2 -36 
L 36 -36 
L 37.8 -36 
L 39.6 -36 
L 41.4 -36 
L 43.2 -36 
L 45 -36 
L 46.8 -36 
L 48.6 -36 
L 50.4 -36 
L 52.2 -36 
L 54 -36 
L 55.8 -36 
L 57.6 -36 
L 59.4 -36 
L 61.2 -36 
L 63 -36 
L 64.8 -36 
L 66.6 -36 
L 68.4 -36 
L 70.2 -36 
L 72 -36 
L 73.8 -36 
L 75.6 -36 
L 77.4 -36 
L 79.2 -36 
L 81 -36 
L 82.8 -36 
L 84.6 -36 
L 86.4 -36 
L 88.2 -36 
L 90 -36 
L 91.8 -36 
L 93.6 -36 
L 95.4 -36 
L 97.2 -36 
L 99 -36 
L 100.8 -36 
L 102.6 -36 
L 104.4 -36 
L 106.2 -36 
L 108 -36 
L 109.8 -36 
L 111.6 -36 
L 113.4 -36 
L 115.2 -36 
L 117 -36 
L 118.8 -36 
L 120.6 -36 
L 122.4 -36 
L 124.2 -36 
L 126 -36 
L 127.8 -36 
L 129.6 -36 
L 131.4 -36 
L 133.2 -36 
L 135 -36 
L 136.8 -36 
L 138.6 -36 
L 140.4 -36 
L 142.2 -36 
L 144 -36 
L 145.8 -36 
L 147.6 -36 
L 149.4 -36 
L 151.2 -36 
L 153 -36 
L 154.8 -36 
L 156.6 -36 
L 158.4 -36 
L 160.2 -36 
L 162 -36 
L 163.8 -36 
L 165.6 -36 
L 167.4 -36 
L 169.2 -36 
L 171 -36 
L 172.8 -36 
L 174.6 -36 
L 176.4 -36 
L 178.2 -36 
L 180 -36 
L 181.8 -36 
L 183.6 -36 
L 185.4 -36 
L 187.2 -36 
L 189 -36 
L 190.8 -36 
L 192.6 -36 
L 194.4 -36 
L 196.2 -36 
L 198 -36 
L 199.8 -36 
L 201.6 -36 
L 203.4 -36 
L 205.2 -36 
L 207 -36 
L 208.8 -36 
L 210.6 -36 
L 212.4 -36 
L 214.2 -36 
L 216 -36 
L 217.8 -36 
L 219.6 -36 
L 221.4 -36 
L 223.2 -36 
L 225 -36 
L 226.8 -36 
L 228.6 -36 
L 230.4 -36 
L 232.2 -36 
L 234 -36 
L 235.8 -36 
L 237.6 -36 
L 239.4 -36 
L 241.2 -36 
L 243 -36 
L 244.8 -36 
L 246.6 -36 
L 248.4 -36 
L 250.2 -36 
L 252 -36 
L 253.8 -36 
L 255.6 -36 
L 257.4 -36 
L 259.2 -36 
L 261 -36 
L 262.8 -36 
L 264.6 -36 
L 266.4 -36 
L 268.2 -36 
L 270 -36 
L 271.8 -36 
L 273.6 -36 
L 275.4 -36 
L 277.2 -36 
L 279 -36 
L 280.8 -36 
L 282.6 -36 
L 284.4 -36 
L 286.2 -36 
L 288 -36 
L 289.8 -36 
L 291.6 -36 
L 293.4 -36 
L 295.2 -36 
L 297 -36 
L 298.8 -36 
L 300.6 -36 
L 302.4 -36 
L 304.2 -36 
L 306 -36 
L 307.8 -36 
L 309.6 -36 
L 311.4 -36 
L 313.2 -36 
L 315 -36 
L 316.8 -36 
L 318.6 -36 
L 320.4 -36 
L 322.2 -36 
L 324 -36 
L 325.8 -36 
L 327.6 -36 
L 329.4 -36 
L 331.2 -36 
L 333 -36 
L 334.8 -36 
L 336.6 -36 
L 338.4 -36 
L 340.2 -36 
L 342 -36 
L 343.8 -36 
L 345.6 -36 
L 347.4 -36 
L 349.2 -36 
L 351 -36 
L 352.8 -36 
L 354.6 -36 
L 356.4 -36 
L 358.2 -36 
L 360 -36 
L 361.8 -36 
L 363.6 -36 
L 365.4 -36 
L 367.2 -36 
L 369 -36 
L 370.8 -36 
L 372.6 -36 
L 374.4 -36 
L 376.2 -36 
L 378 -36 
L 379.8 -36 
L 381.6 -36 
L 383.4 -36 
L 385.2 -36 
L 387 -36 
L 388.8 -36 
L 390.6 -36 
L 392.4 -36 
L 394.2 -36 
L 396 -36 
L 397.8 -36 
L 399.6 -36 
L 401.4 -36 
L 403.2 -36 
L 405 -36 
L 406.8 -36 
L 408.6 -36 
L 410.4 -36 
L 412.2 -36 
L 414 -36 
L 415.8 -36 
L 417.6 -36 
L 419.4 -36 
L 421.2 -36 
L 423 -36 
L 424.8 -36 
L 426.6 -36 
L 428.4 -36 
L 430.2 -36 
L 432 -36 
L 433.8 -36 
L 435.6 -36 
L 437.4 -36 
L 439.2 -36 
L 441 -36 
L 442.8 -36 
L 444.6 -36 
L 446.4 -36 
L 448.2 -36 
L 450 -36 
L 451.8 -36 
L 453.6 -36 
L 455.4 -36 
L 457.2 -36 
L 459 -36 
L 460.8 -36 
L 462.6 -36 
L 464.4 -36 
L 466.2 -36 
L 468 -36 
L 469.8 -36 
L 471.6 -36 
L 473.4 -36 
L 475.2 -36 
L 477 -36 
L 478.8 -36 
L 480.6 -36 
L 482.4 -36 
L 484.2 -36 
L 486 -36 
L 487.8 -36 
L 489.6 -36 
L 491.4 -36 
L 493.2 -36 
L 495 -36 
L 496.8 -36 
L 498.6 -36 
L 500.4 -36 
L 502.2 -36 
L 504 -36 
L 505.8 -36 
L 507.6 -36 
L 509.4 -36 
L 511.2 -36 
L 513 -36 
L 514.8 -36 
L 516.6 -36 
L 518.4 -36 
L 520.2 -36 
L 522 -36 
L 523.8 -36 
L 525.6 -36 
L 527.4 -36 
L 529.2 -36 
L 531 -36 
L 532.8 -36 
L 534.6 -36 
L 536.4 -36 
L 538.2 -36 
L 540 -36 
L 541.8 -36 
L 543.6 -36 
L 545.4 -36 
L 547.2 -36 
L 547.2 -36.000636 
L 547.2 -36.000636 
L 545.4 -36.000769 
L 543.6 -36.000929 
L 541.8 -36.00112 
L 540 -36.001349 
L 538.2 -36.001622 
L 536.4 -36.001947 
L 534.6 -36.002335 
L 532.8 -36.002795 
L 531 -36.003341 
L 529.2 -36.003988 
L 527.4 -36.004754 
L 525.6 -36.005658 
L 523.8 -36.006725 
L 522 -36.007981 
L 520.2 -36.009458 
L 518.4 -36.011192 
L 516.6 -36.013226 
L 514.8 -36.015606 
L 513 -36.018387 
L 511.2 -36.021634 
L 509.4 -36.025417 
L 507.6 -36.029818 
L 505.8 -36.034931 
L 504 -36.040861 
L 502.2 -36.047729 
L 500.4 -36.055671 
L 498.6 -36.064841 
L 496.8 -36.075412 
L 495 -36.087579 
L 493.2 -36.101563 
L 491.4 -36.11761 
L 489.6 -36.135996 
L 487.8 -36.157028 
L 486 -36.181052 
L 484.2 -36.208449 
L 482.4 -36.239646 
L 480.6 -36.275114 
L 478.8 -36.315375 
L 477 -36.361005 
L 475.2 -36.412641 
L 473.4 -36.470982 
L 471.6 -36.536794 
L 469.8 -36.610919 
L 468 -36.694276 
L 466.2 -36.787867 
L 464.4 -36.892784 
L 462.6 -37.01021 
L 460.8 -37.14143 
L 459 -37.287833 
L 457.2 -37.450915 
L 455.4 -37.632288 
L 453.6 -37.833681 
L 451.8 -38.056947 
L 450 -38.304066 
L 448.2 -38.577146 
L 446.4 -38.878429 
L 444.6 -39.21029 
L 442.8 -39.575241 
L 441 -39.97593 
L 439.2 -40.415141 
L 437.4 -40.895789 
L 435.6 -41.420921 
L 433.8 -41.993712 
L 432 -42.617454 
L 430.2 -43.295556 
L 428.4 -44.031528 
L 426.6 -44.828975 
L 424.8 -45.691583 
L 423 -46.623105 
L 421.2 -47.627346 
L 419.4 -48.708142 
L 417.6 -49.869341 
L 415.8 -51.114784 
L 414 -52.448276 
L 412.2 -53.873564 
L 410.4 -55.394307 
L 408.6 -57.014048 
L 406.8 -58.73618 
L 405 -60.563917 
L 403.2 -62.500256 
L 401.4 -64.547946 
L 399.6 -66.709446 
L 397.8 -68.986895 
L 396 -71.382069 
L 394.2 -73.896347 
L 392.4 -76.530672 
L 390.6 -79.285515 
L 388.8 -82.160842 
L 387 -85.156071 
L 385.2 -88.270047 
L 383.4 -91.500981 
L 381.6 -94.84633 
L 379.8 -98.302391 
L 378 -101.862992 
L 376.2 -105.515723 
L 374.4 -109.232817 
L 372.6 -112.953167 
L 370.8 -116.555489 
L 369 -119.834532 
L 367.2 -122.511108 
L 365.4 -124.316514 
L 363.6 -125.16418 
L 361.8 -125.344778 
L 360 -125.601216 
L 358.2 -126.950574 
L 356.4 -130.270742 
L 354.6 -135.869709 
L 352.8 -143.31923 
L 351 -151.66962 
L 349.2 -159.895693 
L 347.4 -167.287277 
L 345.6 -173.589566 
L 343.8 -178.902481 
L 342 -183.481707 
L 340.2 -187.577303 
L 338.4 -191.361362 
L 336.6 -194.925063 
L 334.8 -198.304331 
L 333 -201.505884 
L 331.2 -204.523943 
L 329.4 -207.348485 
L 327.6 -209.968594 
L 325.8 -212.373647 
L 324 -214.553701 
L 322.2 -216.499644 
L 320.4 -218.203274 
L 318.6 -219.65736 
L 316.8 -220.855695 
L 315 -221.793136 
L 313.2 -222.465645 
L 311.4 -222.870319 
L 309.6 -223.005405 
L 307.8 -222.870319 
L 306 -222.465645 
L 304.2 -221.793136 
L 302.4 -220.855695 
L 300.6 -219.65736 
L 298.8 -218.203274 
L 297 -216.499644 
L 295.2 -214.553701 
L 293.4 -212.373648 
L 291.6 -209.968602 
L 289.8 -207.34853 
L 288 -204.524181 
L 286.2 -201.507014 
L 284.4 -198.309118 
L 282.6 -194.943131 
L 280.8 -191.422162 
L 279 -187.7597 
L 277.2 -183.969535 
L 275.4 -180.065667 
L 273.6 -176.062222 
L 271.8 -171.973371 
L 270 -167.813244 
L 268.2 -163.595856 
L 266.4 -159.335025 
L 264.6 -155.044303 
L 262.8 -150.736907 
L 261 -146.425658 
L 259.2 -142.122919 
L 257.4 -137.840545 
L 255.6 -133.589833 
L 253.8 -129.381484 
L 252 -125.225563 
L 250.2 -121.131476 
L 248.4 -117.107938 
L 246.6 -113.162962 
L 244.8 -109.303845 
L 243 -105.537161 
L 241.2 -101.868761 
L 239.4 -98.303775 
L 237.6 -94.846626 
L 235.8 -91.501038 
L 234 -88.270057 
L 232.2 -85.156073 
L 230.4 -82.160842 
L 228.6 -79.285515 
L 226.8 -76.530672 
L 225 -73.896347 
L 223.2 -71.382069 
L 221.4 -68.986895 
L 219.6 -66.709446 
L 217.8 -64.547946 
L 216 -62.500256 
L 214.2 -60.563917 
L 212.4 -58.73618 
L 210.6 -57.014048 
L 208.8 -55.394307 
L 207 -53.873564 
L 205.2 -52.448276 
L 203.4 -51.114784 
L 201.6 -49.869341 
L 199.8 -48.708142 
L 198 -47.627346 
L 196.2 -46.623105 
L 194.4 -45.691583 
L 192.6 -44.828975 
L 190.8 -44.031528 
L 189 -43.295556 
L 187.2 -42.617454 
L 185.4 -41.993712 
L 183.6 -41.420921 
L 181.8 -40.895789 
L 180 -40.415141 
L 178.2 -39.97593 
L 176.4 -39.575241 
L 174.6 -39.21029 
L 172.8 -38.878429 
L 171 -38.577146 
L 169.2 -38.304066 
L 167.4 -38.056947 
L 165.6 -37.833681 
L 163.8 -37.632288 
L 162 -37.450915 
L 160.2 -37.287833 
L 158.4 -37.14143 
L 156.6 -37.01021 
L 154.8 -36.892784 
L 153 -36.787867 
L 151.2 -36.694276 
L 149.4 -36.610919 
L 147.6 -36.536794 
L 145.8 -36.470982 
L 144 -36.412641 
L 142.2 -36.361005 
L 140.4 -36.315375 
L 138.6 -36.275114 
L 136.8 -36.239646 
L 135 -36.208449 
L 133.2 -36.181052 
L 131.4 -36.157028 
L 129.6 -36.135996 
L 127.8 -36.11761 
L 126 -36.101563 
L 124.2 -36.087579 
L 122.4 -36.075412 
L 120.6 -36.064841 
L 118.8 -36.055671 
L 117 -36.047729 
L 115.2 -36.040861 
L 113.4 -36.034931 
L 111.6 -36.029818 
L 109.8 -36.025417 
L 108 -36.021634 
L 106.2 -36.018387 
L 104.4 -36.015606 
L 102.6 -36.013226 
L 100.8 -36.011192 
L 99 -36.009458 
L 97.2 -36.007981 
L 95.4 -36.006725 
L 93.6 -36.005658 
L 91.8 -36.004754 
L 90 -36.003988 
L 88.2 -36.003341 
L 86.4 -36.002795 
L 84.6 -36.002335 
L 82.8 -36.001947 
L 81 -36.001622 
L 79.2 -36.001349 
L 77.4 -36.00112 
L 75.6 -36.000929 
L 73.8 -36.000769 
L 72 -36.000636 
L 70.2 -36.000525 
L 68.4 -36.000433 
L 66.6 -36.000357 
L 64.8 -36.000293 
L 63 -36.000241 
L 61.2 -36.000197 
L 59.4 -36.000162 
L 57.6 -36.000132 
L 55.8 -36.000108 
L 54 -36.000088 
L 52.2 -36.000071 
L 50.4 -36.000058 
L 48.6 -36.000047 
L 46.8 -36.000038 
L 45 -36.000031 
L 43.2 -36.000025 
L 41.4 -36.00002 
L 39.6 -36.000016 
L 37.8 -36.000013 
L 36 -36.00001 
L 34.2 -36.000008 
L 32.4 -36.000007 
L 30.6 -36.000005 
L 28.8 -36.000004 
z
"/>
    </defs>
    <g clip-path="url(#p621717ee57)">
     <use xlink:href="#m6643ab1f1b" x="0" y="360" style="fill: #eda100; fill-opacity: 0.35"/>
    </g>
   </g>
   <g id="FillBetweenPolyCollection_2">
    <defs>
     <path id="mfd271d36ff" d="M 28.8 -36.000004 
L 28.8 -36 
L 30.6 -36 
L 32.4 -36 
L 34.2 -36 
L 36 -36 
L 37.8 -36 
L 39.6 -36 
L 41.4 -36 
L 43.2 -36 
L 45 -36 
L 46.8 -36 
L 48.6 -36 
L 50.4 -36 
L 52.2 -36 
L 54 -36 
L 55.8 -36 
L 57.6 -36 
L 59.4 -36 
L 61.2 -36 
L 63 -36 
L 64.8 -36 
L 66.6 -36 
L 68.4 -36 
L 70.2 -36 
L 72 -36 
L 73.8 -36 
L 75.6 -36 
L 77.4 -36 
L 79.2 -36 
L 81 -36 
L 82.8 -36 
L 84.6 -36 
L 86.4 -36 
L 88.2 -36 
L 90 -36 
L 91.8 -36 
L 93.6 -36 
L 95.4 -36 
L 97.2 -36 
L 99 -36 
L 100.8 -36 
L 102.6 -36 
L 104.4 -36 
L 106.2 -36 
L 108 -36 
L 109.8 -36 
L 111.6 -36 
L 113.4 -36 
L 115.2 -36 
L 117 -36 
L 118.8 -36 
L 120.6 -36 
L 122.4 -36 
L 124.2 -36 
L 126 -36 
L 127.8 -36 
L 129.6 -36 
L 131.4 -36 
L 133.2 -36 
L 135 -36 
L 136.8 -36 
L 138.6 -36 
L 140.4 -36 
L 142.2 -36 
L 144 -36 
L 145.8 -36 
L 147.6 -36 
L 149.4 -36 
L 151.2 -36 
L 153 -36 
L 154.8 -36 
L 156.6 -36 
L 158.4 -36 
L 160.2 -36 
L 162 -36 
L 163.8 -36 
L 165.6 -36 
L 167.4 -36 
L 169.2 -36 
L 171 -36 
L 172.8 -36 
L 174.6 -36 
L 176.4 -36 
L 178.2 -36 
L 180 -36 
L 181.8 -36 
L 183.6 -36 
L 185.4 -36 
L 187.2 -36 
L 189 -36 
L 190.8 -36 
L 192.6 -36 
L 194.4 -36 
L 196.2 -36 
L 198 -36 
L 199.8 -36 
L 201.6 -36 
L 203.4 -36 
L 205.2 -36 
L 207 -36 
L 208.8 -36 
L 210.6 -36 
L 212.4 -36 
L 214.2 -36 
L 216 -36 
L 217.8 -36 
L 219.6 -36 
L 221.4 -36 
L 223.2 -36 
L 225 -36 
L 226.8 -36 
L 228.6 -36 
L 230.4 -36 
L 232.2 -36 
L 234 -36 
L 235.8 -36 
L 237.6 -36 
L 239.4 -36 
L 241.2 -36 
L 243 -36 
L 244.8 -36 
L 246.6 -36 
L 248.4 -36 
L 250.2 -36 
L 252 -36 
L 253.8 -36 
L 255.6 -36 
L 257.4 -36 
L 259.2 -36 
L 261 -36 
L 262.8 -36 
L 264.6 -36 
L 266.4 -36 
L 268.2 -36 
L 270 -36 
L 271.8 -36 
L 273.6 -36 
L 275.4 -36 
L 277.2 -36 
L 279 -36 
L 280.8 -36 
L 282.6 -36 
L 284.4 -36 
L 286.2 -36 
L 288 -36 
L 289.8 -36 
L 291.6 -36 
L 293.4 -36 
L 295.2 -36 
L 297 -36 
L 298.8 -36 
L 300.6 -36 
L 302.4 -36 
L 304.2 -36 
L 306 -36 
L 307.8 -36 
L 309.6 -36 
L 311.4 -36 
L 313.2 -36 
L 315 -36 
L 316.8 -36 
L 318.6 -36 
L 320.4 -36 
L 322.2 -36 
L 324 -36 
L 325.8 -36 
L 327.6 -36 
L 329.4 -36 
L 331.2 -36 
L 333 -36 
L 334.8 -36 
L 336.6 -36 
L 338.4 -36 
L 340.2 -36 
L 342 -36 
L 343.8 -36 
L 345.6 -36 
L 347.4 -36 
L 349.2 -36 
L 351 -36 
L 352.8 -36 
L 354.6 -36 
L 356.4 -36 
L 358.2 -36 
L 360 -36 
L 361.8 -36 
L 363.6 -36 
L 365.4 -36 
L 367.2 -36 
L 369 -36 
L 370.8 -36 
L 372.6 -36 
L 374.4 -36 
L 376.2 -36 
L 378 -36 
L 379.8 -36 
L 381.6 -36 
L 383.4 -36 
L 385.2 -36 
L 387 -36 
L 388.8 -36 
L 390.6 -36 
L 392.4 -36 
L 394.2 -36 
L 396 -36 
L 397.8 -36 
L 399.6 -36 
L 401.4 -36 
L 403.2 -36 
L 405 -36 
L 406.8 -36 
L 408.6 -36 
L 410.4 -36 
L 412.2 -36 
L 414 -36 
L 415.8 -36 
L 417.6 -36 
L 419.4 -36 
L 421.2 -36 
L 423 -36 
L 424.8 -36 
L 426.6 -36 
L 428.4 -36 
L 430.2 -36 
L 432 -36 
L 433.8 -36 
L 435.6 -36 
L 437.4 -36 
L 439.2 -36 
L 441 -36 
L 442.8 -36 
L 444.6 -36 
L 446.4 -36 
L 448.2 -36 
L 450 -36 
L 451.8 -36 
L 453.6 -36 
L 455.4 -36 
L 457.2 -36 
L 459 -36 
L 460.8 -36 
L 462.6 -36 
L 464.4 -36 
L 466.2 -36 
L 468 -36 
L 469.8 -36 
L 471.6 -36 
L 473.4 -36 
L 475.2 -36 
L 477 -36 
L 478.8 -36 
L 480.6 -36 
L 482.4 -36 
L 484.2 -36 
L 486 -36 
L 487.8 -36 
L 489.6 -36 
L 491.4 -36 
L 493.2 -36 
L 495 -36 
L 496.8 -36 
L 498.6 -36 
L 500.4 -36 
L 502.2 -36 
L 504 -36 
L 505.8 -36 
L 507.6 -36 
L 509.4 -36 
L 511.2 -36 
L 513 -36 
L 514.8 -36 
L 516.6 -36 
L 518.4 -36 
L 520.2 -36 
L 522 -36 
L 523.8 -36 
L 525.6 -36 
L 527.4 -36 
L 529.2 -36 
L 531 -36 
L 532.8 -36 
L 534.6 -36 
L 536.4 -36 
L 538.2 -36 
L 540 -36 
L 541.8 -36 
L 543.6 -36 
L 545.4 -36 
L 547.2 -36 
L 547.2 -36.000636 
L 547.2 -36.000636 
L 545.4 -36.000769 
L 543.6 -36.000929 
L 541.8 -36.00112 
L 540 -36.001349 
L 538.2 -36.001622 
L 536.4 -36.001947 
L 534.6 -36.002335 
L 532.8 -36.002795 
L 531 -36.003341 
L 529.2 -36.003988 
L 527.4 -36.004754 
L 525.6 -36.005658 
L 523.8 -36.006725 
L 522 -36.007981 
L 520.2 -36.009458 
L 518.4 -36.011192 
L 516.6 -36.013226 
L 514.8 -36.015606 
L 513 -36.018387 
L 511.2 -36.021634 
L 509.4 -36.025417 
L 507.6 -36.029818 
L 505.8 -36.034931 
L 504 -36.040861 
L 502.2 -36.047729 
L 500.4 -36.055671 
L 498.6 -36.064841 
L 496.8 -36.075412 
L 495 -36.087579 
L 493.2 -36.101563 
L 491.4 -36.11761 
L 489.6 -36.135996 
L 487.8 -36.157028 
L 486 -36.181052 
L 484.2 -36.208449 
L 482.4 -36.239646 
L 480.6 -36.275114 
L 478.8 -36.315375 
L 477 -36.361005 
L 475.2 -36.412641 
L 473.4 -36.470982 
L 471.6 -36.536794 
L 469.8 -36.610919 
L 468 -36.694276 
L 466.2 -36.787867 
L 464.4 -36.892784 
L 462.6 -37.01021 
L 460.8 -37.14143 
L 459 -37.287833 
L 457.2 -37.450915 
L 455.4 -37.632288 
L 453.6 -37.833681 
L 451.8 -38.056947 
L 450 -38.304066 
L 448.2 -38.577146 
L 446.4 -38.878429 
L 444.6 -39.21029 
L 442.8 -39.575241 
L 441 -39.97593 
L 439.2 -40.415141 
L 437.4 -40.895789 
L 435.6 -41.420921 
L 433.8 -41.993712 
L 432 -42.617454 
L 430.2 -43.295556 
L 428.4 -44.031528 
L 426.6 -44.828975 
L 424.8 -45.691583 
L 423 -46.623105 
L 421.2 -47.627346 
L 419.4 -48.708142 
L 417.6 -49.869341 
L 415.8 -51.114784 
L 414 -52.448276 
L 412.2 -53.873564 
L 410.4 -55.394307 
L 408.6 -57.014048 
L 406.8 -58.73618 
L 405 -60.563917 
L 403.2 -62.500256 
L 401.4 -64.547946 
L 399.6 -66.709446 
L 397.8 -68.715962 
L 396 -67.043503 
L 394.2 -65.618859 
L 392.4 -63.679316 
L 390.6 -63.876343 
L 388.8 -62.175495 
L 387 -61.242763 
L 385.2 -59.932192 
L 383.4 -58.31411 
L 381.6 -56.958928 
L 379.8 -55.908148 
L 378 -54.530801 
L 376.2 -54.89164 
L 374.4 -53.821353 
L 372.6 -53.591608 
L 370.8 -53.643758 
L 369 -54.255153 
L 367.2 -54.719336 
L 365.4 -54.698296 
L 363.6 -53.904845 
L 361.8 -55.497691 
L 360 -55.041141 
L 358.2 -56.276882 
L 356.4 -55.652776 
L 354.6 -56.439615 
L 352.8 -55.872074 
L 351 -55.569617 
L 349.2 -56.747487 
L 347.4 -56.838235 
L 345.6 -56.138229 
L 343.8 -56.16565 
L 342 -55.358872 
L 340.2 -55.766218 
L 338.4 -54.988156 
L 336.6 -55.586396 
L 334.8 -54.493262 
L 333 -54.542813 
L 331.2 -54.836682 
L 329.4 -54.699457 
L 327.6 -53.952357 
L 325.8 -53.201151 
L 324 -53.634104 
L 322.2 -53.723553 
L 320.4 -52.712311 
L 318.6 -53.685824 
L 316.8 -52.190652 
L 315 -51.868871 
L 313.2 -51.101591 
L 311.4 -50.27373 
L 309.6 -50.602614 
L 307.8 -50.15789 
L 306 -50.559682 
L 304.2 -51.059337 
L 302.4 -51.859976 
L 300.6 -52.649105 
L 298.8 -51.776517 
L 297 -51.34638 
L 295.2 -51.931701 
L 293.4 -51.69958 
L 291.6 -53.115522 
L 289.8 -53.205223 
L 288 -52.638318 
L 286.2 -51.701907 
L 284.4 -51.677589 
L 282.6 -52.209984 
L 280.8 -52.732413 
L 279 -53.464473 
L 277.2 -54.520838 
L 275.4 -52.544131 
L 273.6 -52.137944 
L 271.8 -52.049391 
L 270 -53.298421 
L 268.2 -53.454219 
L 266.4 -54.789578 
L 264.6 -55.06859 
L 262.8 -55.136708 
L 261 -54.112597 
L 259.2 -55.843212 
L 257.4 -56.352374 
L 255.6 -57.038312 
L 253.8 -55.743727 
L 252 -54.726462 
L 250.2 -52.909073 
L 248.4 -53.501092 
L 246.6 -53.805538 
L 244.8 -52.631253 
L 243 -51.82832 
L 241.2 -51.22417 
L 239.4 -51.191833 
L 237.6 -50.706273 
L 235.8 -52.538455 
L 234 -54.661795 
L 232.2 -56.104382 
L 230.4 -56.21435 
L 228.6 -58.75682 
L 226.8 -59.387506 
L 225 -61.054634 
L 223.2 -62.218713 
L 221.4 -65.614169 
L 219.6 -66.480454 
L 217.8 -64.547946 
L 216 -62.500256 
L 214.2 -60.563917 
L 212.4 -58.73618 
L 210.6 -57.014048 
L 208.8 -55.394307 
L 207 -53.873564 
L 205.2 -52.448276 
L 203.4 -51.114784 
L 201.6 -49.869341 
L 199.8 -48.708142 
L 198 -47.627346 
L 196.2 -46.623105 
L 194.4 -45.691583 
L 192.6 -44.828975 
L 190.8 -44.031528 
L 189 -43.295556 
L 187.2 -42.617454 
L 185.4 -41.993712 
L 183.6 -41.420921 
L 181.8 -40.895789 
L 180 -40.415141 
L 178.2 -39.97593 
L 176.4 -39.575241 
L 174.6 -39.21029 
L 172.8 -38.878429 
L 171 -38.577146 
L 169.2 -38.304066 
L 167.4 -38.056947 
L 165.6 -37.833681 
L 163.8 -37.632288 
L 162 -37.450915 
L 160.2 -37.287833 
L 158.4 -37.14143 
L 156.6 -37.01021 
L 154.8 -36.892784 
L 153 -36.787867 
L 151.2 -36.694276 
L 149.4 -36.610919 
L 147.6 -36.536794 
L 145.8 -36.470982 
L 144 -36.412641 
L 142.2 -36.361005 
L 140.4 -36.315375 
L 138.6 -36.275114 
L 136.8 -36.239646 
L 135 -36.208449 
L 133.2 -36.181052 
L 131.4 -36.157028 
L 129.6 -36.135996 
L 127.8 -36.11761 
L 126 -36.101563 
L 124.2 -36.087579 
L 122.4 -36.075412 
L 120.6 -36.064841 
L 118.8 -36.055671 
L 117 -36.047729 
L 115.2 -36.040861 
L 113.4 -36.034931 
L 111.6 -36.029818 
L 109.8 -36.025417 
L 108 -36.021634 
L 106.2 -36.018387 
L 104.4 -36.015606 
L 102.6 -36.013226 
L 100.8 -36.011192 
L 99 -36.009458 
L 97.2 -36.007981 
L 95.4 -36.006725 
L 93.6 -36.005658 
L 91.8 -36.004754 
L 90 -36.003988 
L 88.2 -36.003341 
L 86.4 -36.002795 
L 84.6 -36.002335 
L 82.8 -36.001947 
L 81 -36.001622 
L 79.2 -36.001349 
L 77.4 -36.00112 
L 75.6 -36.000929 
L 73.8 -36.000769 
L 72 -36.000636 
L 70.2 -36.000525 
L 68.4 -36.000433 
L 66.6 -36.000357 
L 64.8 -36.000293 
L 63 -36.000241 
L 61.2 -36.000197 
L 59.4 -36.000162 
L 57.6 -36.000132 
L 55.8 -36.000108 
L 54 -36.000088 
L 52.2 -36.000071 
L 50.4 -36.000058 
L 48.6 -36.000047 
L 46.8 -36.000038 
L 45 -36.000031 
L 43.2 -36.000025 
L 41.4 -36.00002 
L 39.6 -36.000016 
L 37.8 -36.000013 
L 36 -36.00001 
L 34.2 -36.000008 
L 32.4 -36.000007 
L 30.6 -36.000005 
L 28.8 -36.000004 
z
"/>
    </defs>
    <g clip-path="url(#p621717ee57)">
     <use xlink:href="#mfd271d36ff" x="0" y="360" style="fill: #eda100; fill-opacity: 0.35"/>
    </g>
   </g>
   <g id="matplotlib.axis_1"/>
   <g id="matplotlib.axis_2"/>
   <g id="line2d_4">
    <path d="M 28.8 323.999996 
L 126 323.898437 
L 140.4 323.684625 
L 151.2 323.305724 
L 158.4 322.85857 
L 165.6 322.166319 
L 171 321.422854 
L 176.4 320.424759 
L 180 319.584859 
L 183.6 318.579079 
L 187.2 317.382546 
L 190.8 315.968472 
L 194.4 314.308417 
L 198 312.372654 
L 201.6 310.130659 
L 205.2 307.551724 
L 208.8 304.605693 
L 212.4 301.26382 
L 216 297.499744 
L 219.6 293.290554 
L 223.2 288.617931 
L 226.8 283.469328 
L 230.4 277.839158 
L 234 271.729943 
L 237.6 265.153374 
L 241.2 258.131239 
L 244.8 250.696155 
L 250.2 238.868524 
L 255.6 226.410167 
L 275.4 179.934333 
L 279 172.2403 
L 282.6 165.056869 
L 286.2 158.492986 
L 289.8 152.65147 
L 291.6 150.031398 
L 293.4 147.626352 
L 295.2 145.446299 
L 297 143.500356 
L 298.8 141.796726 
L 300.6 140.34264 
L 302.4 139.144305 
L 304.2 138.206864 
L 306 137.534355 
L 307.8 137.129681 
L 309.6 136.994595 
L 311.4 137.129681 
L 313.2 137.534355 
L 315 138.206864 
L 316.8 139.144305 
L 318.6 140.34264 
L 320.4 141.796726 
L 322.2 143.500356 
L 324 145.446299 
L 325.8 147.626353 
L 327.6 150.031406 
L 329.4 152.651515 
L 333 158.494116 
L 336.6 165.074937 
L 340.2 172.422697 
L 342 176.518293 
L 343.8 181.097519 
L 345.6 186.410434 
L 347.4 192.712723 
L 349.2 200.104307 
L 352.8 216.68077 
L 354.6 224.130291 
L 356.4 229.729258 
L 358.2 233.049426 
L 360 234.398784 
L 363.6 234.83582 
L 365.4 235.683486 
L 367.2 237.488892 
L 369 240.165468 
L 370.8 243.444511 
L 376.2 254.484277 
L 379.8 261.697609 
L 383.4 268.499019 
L 387 274.843929 
L 390.6 280.714485 
L 394.2 286.103653 
L 397.8 291.013105 
L 401.4 295.452054 
L 405 299.436083 
L 408.6 302.985952 
L 412.2 306.126436 
L 415.8 308.885216 
L 419.4 311.291858 
L 423 313.376895 
L 426.6 315.171025 
L 430.2 316.704444 
L 433.8 318.006288 
L 437.4 319.104211 
L 441 320.02407 
L 446.4 321.121571 
L 451.8 321.943053 
L 457.2 322.549085 
L 464.4 323.107216 
L 473.4 323.529018 
L 484.2 323.791551 
L 500.4 323.944329 
L 536.4 323.998053 
L 547.2 323.999364 
L 547.2 323.999364 
" clip-path="url(#p621717ee57)" style="fill: none; stroke: #c98500; stroke-width: 2.4; stroke-linecap: round"/>
   </g>
   <g id="line2d_5">
    <path d="M 28.8 308.084673 
L 30.6 308.214731 
L 32.4 309.433274 
L 34.2 309.573185 
L 36 310.095119 
L 37.8 309.321713 
L 39.6 307.643821 
L 41.4 308.108759 
L 43.2 307.93594 
L 45 308.065877 
L 46.8 308.572332 
L 48.6 307.589537 
L 52.2 306.780867 
L 54 308.207682 
L 55.8 308.464416 
L 57.6 308.237059 
L 59.4 307.134869 
L 61.2 306.403043 
L 63 306.071306 
L 66.6 305.910517 
L 68.4 304.599282 
L 70.2 305.33969 
L 72 305.366086 
L 73.8 304.776082 
L 75.6 306.243339 
L 77.4 306.748148 
L 79.2 305.910987 
L 81 305.450598 
L 82.8 305.721459 
L 84.6 306.484552 
L 86.4 308.027975 
L 88.2 307.264953 
L 90 308.448491 
L 91.8 308.920323 
L 93.6 308.57758 
L 95.4 308.687364 
L 99 310.01029 
L 100.8 310.398754 
L 102.6 308.724482 
L 104.4 308.492623 
L 108 306.339184 
L 109.8 305.835187 
L 111.6 306.381478 
L 113.4 306.67125 
L 115.2 305.668839 
L 117 305.332006 
L 118.8 305.427936 
L 120.6 306.745231 
L 122.4 307.053526 
L 124.2 308.668336 
L 126 308.912888 
L 127.8 308.478208 
L 129.6 308.887556 
L 131.4 309.173134 
L 133.2 310.064009 
L 135 309.418698 
L 138.6 310.670976 
L 140.4 308.58885 
L 142.2 308.108497 
L 144 309.445259 
L 145.8 308.418085 
L 147.6 307.8234 
L 149.4 307.061373 
L 151.2 305.875653 
L 153 304.52727 
L 154.8 302.742864 
L 156.6 302.584349 
L 158.4 300.995772 
L 160.2 298.034866 
L 162 296.043012 
L 163.8 295.115047 
L 165.6 291.330505 
L 167.4 289.209604 
L 169.2 285.21369 
L 171 281.761111 
L 172.8 277.831298 
L 174.6 275.932987 
L 178.2 270.548846 
L 180 265.86394 
L 181.8 265.201588 
L 183.6 263.79915 
L 185.4 262.642819 
L 187.2 261.859546 
L 189 260.904053 
L 190.8 260.995763 
L 192.6 261.83282 
L 194.4 262.171854 
L 196.2 263.600458 
L 198 264.067505 
L 199.8 265.793961 
L 201.6 268.349362 
L 203.4 271.129906 
L 205.2 274.628695 
L 207 276.489266 
L 208.8 279.056962 
L 210.6 282.060021 
L 212.4 285.838952 
L 214.2 288.790596 
L 216 291.41151 
L 217.8 292.084383 
L 219.6 293.519546 
L 221.4 294.385831 
L 223.2 297.781287 
L 225 298.945366 
L 226.8 300.612494 
L 228.6 301.24318 
L 230.4 303.78565 
L 232.2 303.895618 
L 234 305.338205 
L 235.8 307.461545 
L 237.6 309.293727 
L 239.4 308.808167 
L 241.2 308.77583 
L 243 308.17168 
L 244.8 307.368747 
L 246.6 306.194462 
L 248.4 306.498908 
L 250.2 307.090927 
L 252 305.273538 
L 253.8 304.256273 
L 255.6 302.961688 
L 257.4 303.647626 
L 259.2 304.156788 
L 261 305.887403 
L 262.8 304.863292 
L 264.6 304.93141 
L 266.4 305.210422 
L 268.2 306.545781 
L 270 306.701579 
L 271.8 307.950609 
L 273.6 307.862056 
L 275.4 307.455869 
L 277.2 305.479162 
L 279 306.535527 
L 280.8 307.267587 
L 284.4 308.322411 
L 286.2 308.298093 
L 288 307.361682 
L 289.8 306.794777 
L 291.6 306.884478 
L 293.4 308.30042 
L 295.2 308.068299 
L 297 308.65362 
L 298.8 308.223483 
L 300.6 307.350895 
L 304.2 308.940663 
L 307.8 309.84211 
L 309.6 309.397386 
L 311.4 309.72627 
L 315 308.131129 
L 316.8 307.809348 
L 318.6 306.314176 
L 320.4 307.287689 
L 322.2 306.276447 
L 324 306.365896 
L 325.8 306.798849 
L 329.4 305.300543 
L 331.2 305.163318 
L 333 305.457187 
L 334.8 305.506738 
L 336.6 304.413604 
L 338.4 305.011844 
L 340.2 304.233782 
L 342 304.641128 
L 343.8 303.83435 
L 345.6 303.861771 
L 347.4 303.161765 
L 349.2 303.252513 
L 351 304.430383 
L 352.8 304.127926 
L 354.6 303.560385 
L 356.4 304.347224 
L 358.2 303.723118 
L 360 304.958859 
L 361.8 304.502309 
L 363.6 306.095155 
L 365.4 305.301704 
L 367.2 305.280664 
L 369 305.744847 
L 370.8 306.356242 
L 372.6 306.408392 
L 374.4 306.178647 
L 376.2 305.10836 
L 378 305.469199 
L 379.8 304.091852 
L 381.6 303.041072 
L 383.4 301.68589 
L 385.2 300.067808 
L 387 298.757237 
L 388.8 297.824505 
L 390.6 296.123657 
L 392.4 296.320684 
L 394.2 294.381141 
L 396 292.956497 
L 397.8 291.284038 
L 399.6 289.343131 
L 401.4 287.64841 
L 403.2 284.799372 
L 405 281.551467 
L 406.8 279.368048 
L 408.6 275.41421 
L 410.4 272.922801 
L 412.2 269.988958 
L 414 268.086894 
L 415.8 265.062361 
L 417.6 262.777924 
L 421.2 257.522771 
L 424.8 250.571265 
L 426.6 249.245196 
L 430.2 244.532059 
L 432 243.447288 
L 433.8 240.563228 
L 435.6 239.822337 
L 437.4 239.605165 
L 439.2 240.253896 
L 441 241.297335 
L 442.8 240.616933 
L 444.6 242.371579 
L 446.4 243.197349 
L 448.2 243.724367 
L 450 246.64204 
L 451.8 248.94112 
L 453.6 250.345136 
L 455.4 253.153884 
L 457.2 254.810052 
L 460.8 260.56618 
L 462.6 264.490794 
L 464.4 268.066866 
L 466.2 269.074695 
L 469.8 274.664815 
L 471.6 276.882337 
L 473.4 280.709339 
L 475.2 282.074946 
L 477 284.253161 
L 478.8 285.637845 
L 480.6 287.651074 
L 482.4 290.638589 
L 484.2 293.050756 
L 486 293.705996 
L 487.8 295.574047 
L 489.6 296.860059 
L 491.4 299.984792 
L 493.2 301.152353 
L 495 302.181771 
L 496.8 302.487339 
L 498.6 303.104947 
L 500.4 302.266799 
L 502.2 303.417078 
L 504 303.764648 
L 505.8 303.65114 
L 507.6 303.040495 
L 509.4 302.921199 
L 511.2 303.039658 
L 513 303.03752 
L 514.8 303.496733 
L 516.6 304.56024 
L 518.4 304.654423 
L 520.2 303.602943 
L 522 304.297034 
L 523.8 304.760532 
L 525.6 304.821508 
L 527.4 304.552714 
L 529.2 306.460823 
L 531 306.400492 
L 532.8 305.480974 
L 534.6 306.416415 
L 536.4 306.673371 
L 538.2 306.229947 
L 540 306.510389 
L 541.8 306.431809 
L 543.6 307.17235 
L 545.4 306.066127 
L 547.2 306.288337 
L 547.2 306.288337 
" clip-path="url(#p621717ee57)" style="fill: none; stroke: #2a78d6; stroke-width: 2.4; stroke-linecap: round"/>
   </g>
   <g id="patch_3">
    <path d="M 28.8 324 
L 547.2 324 
" style="fill: none; stroke: #e4e3df; stroke-width: 1.2; stroke-linejoin: miter; stroke-linecap: square"/>
   </g>
  </g>
  <g id="axes_2">
   <g id="patch_4">
    <path d="M 54.36 111.6 
L 54.36 68.4 
L 129.96 68.4 
L 129.96 111.6 
L 54.36 111.6 
z
" clip-path="url(#p358c9375c3)" style="fill: none; stroke: #52514e; stroke-width: 2"/>
   </g>
   <g id="patch_5">
    <path d="M 44.64 70.56 
L 92.16 29.52 
L 139.68 70.56 
" clip-path="url(#p358c9375c3)" style="fill: none; stroke: #52514e; stroke-width: 2; stroke-linecap: round"/>
   </g>
   <g id="patch_6">
    <path d="M 98.64 37.08 
L 108.9 45.936 
L 102.96 51.12 
L 92.7 42.264 
z
" clip-path="url(#p358c9375c3)" style="fill: #2a78d6; opacity: 0.85"/>
   </g>
   <g id="patch_7">
    <path d="M 110.52 47.34 
L 120.78 56.196 
L 114.84 61.38 
L 104.58 52.524 
z
" clip-path="url(#p358c9375c3)" style="fill: #2a78d6; opacity: 0.85"/>
   </g>
   <g id="patch_8">
    <path d="M 122.4 57.6 
L 132.66 66.456 
L 126.72 71.64 
L 116.46 62.784 
z
" clip-path="url(#p358c9375c3)" style="fill: #2a78d6; opacity: 0.85"/>
   </g>
   <g id="patch_9">
    <path d="M 83.52 111.6 
L 83.52 86.76 
L 100.8 86.76 
L 100.8 111.6 
L 83.52 111.6 
z
" clip-path="url(#p358c9375c3)" style="fill: none; stroke: #52514e; stroke-width: 2; stroke-linejoin: miter"/>
   </g>
   <g id="patch_10">
    <path d="M 53.28 39.24 
C 55.857774 39.24 58.330316 38.215839 60.153078 36.393078 
C 61.975839 34.570316 63 32.097774 63 29.52 
C 63 26.942226 61.975839 24.469684 60.153078 22.646922 
C 58.330316 20.824161 55.857774 19.8 53.28 19.8 
C 50.702226 19.8 48.229684 20.824161 46.406922 22.646922 
C 44.584161 24.469684 43.56 26.942226 43.56 29.52 
C 43.56 32.097774 44.584161 34.570316 46.406922 36.393078 
C 48.229684 38.215839 50.702226 39.24 53.28 39.24 
z
" clip-path="url(#p358c9375c3)" style="fill: #eda100; opacity: 0.9"/>
   </g>
  </g>
 </g>
 <defs>
  <clipPath id="p621717ee57">
   <rect x="28.8" y="100.8" width="518.4" height="223.2"/>
  </clipPath>
  <clipPath id="p358c9375c3">
   <rect x="38.16" y="14.4" width="108" height="108"/>
  </clipPath>
 </defs>
</svg>
